<svg id="Layer_1" data-name="Layer 1" xmlns="http://www.w3.org/2000/svg" viewBox="0 0 372.05 104.51"><defs><style>.cls-1{fill:#2121f9;}.cls-2{fill:#171717;}.cls-3{fill:#f2eadf;}.cls-4{fill:none;}.cls-5{fill:#f05f42;}</style></defs><title>Logos</title><path class="cls-1" d="M80.79,53.31A12.23,12.23,0,0,0,68.57,41.08H54A12.23,12.23,0,0,0,41.81,53.31h0A12.23,12.23,0,0,0,54,65.54H69.52l.64,0,3,5.74L79.42,59h0a12.19,12.19,0,0,0,1.38-5.65Z"/><path class="cls-2" d="M83.31,55.61a16.07,16.07,0,0,0,.17-2.3A14.93,14.93,0,0,0,68.57,38.39H54.37A15.14,15.14,0,0,0,39.12,52.88,14.94,14.94,0,0,0,54,68.23H68.55L72.11,75a1.27,1.27,0,0,0,2.25,0l7.46-14.76h0l1.49-4.56Zm-2.52-2.3A12.19,12.19,0,0,1,79.41,59h0L73.2,71.26l-3-5.74-.64,0H54A12.23,12.23,0,0,1,41.81,53.31h0A12.23,12.23,0,0,1,54,41.08H68.57A12.23,12.23,0,0,1,80.79,53.31Z"/><path class="cls-3" d="M25.51,42.37A12.22,12.22,0,0,1,37.73,30.15H52.26A12.22,12.22,0,0,1,64.49,42.37h0A12.22,12.22,0,0,1,52.26,54.6H36.78l-.64,0-3,5.75L26.88,48h0a12.19,12.19,0,0,1-1.38-5.65Z"/><path class="cls-2" d="M23,44.67l1.49,4.57h0L31.94,64a1.27,1.27,0,0,0,2.25,0l3.56-6.72a0,0,0,0,1,0,0H52.26A14.94,14.94,0,0,0,67.18,41.94,15.15,15.15,0,0,0,51.92,27.45H37.73A15,15,0,0,0,22.81,42.37a14.76,14.76,0,0,0,.18,2.3Zm2.52-2.3A12.22,12.22,0,0,1,37.73,30.15H52.26A12.22,12.22,0,0,1,64.49,42.37h0A12.22,12.22,0,0,1,52.26,54.6H36.78l-.64,0-3,5.75L26.88,48h0a12.19,12.19,0,0,1-1.38-5.65Z"/><path class="cls-4" d="M64.42,42.36h0q0-.66-.06-1.29H54A12.23,12.23,0,0,0,41.74,53.3c0,.43,0,.86.07,1.28H52.2A12.22,12.22,0,0,0,64.42,42.36Z"/><path class="cls-2" d="M67.11,41.93c0-.29,0-.58,0-.86a14.69,14.69,0,0,0-.49-2.69H54.31A15.14,15.14,0,0,0,39.06,52.86a13.94,13.94,0,0,0,0,1.72,15,15,0,0,0,.48,2.7H52.2A14.93,14.93,0,0,0,67.11,41.93Zm-2.69.43A12.22,12.22,0,0,1,52.2,54.58H41.81c0-.42-.07-.85-.07-1.28A12.23,12.23,0,0,1,54,41.07H64.36q.06.63.06,1.29Z"/><path class="cls-5" d="M64.42,42.36A12.22,12.22,0,0,1,52.2,54.58H41.81c0-.42-.07-.85-.07-1.28A12.23,12.23,0,0,1,54,41.07H64.36q.06.63.06,1.29Z"/><path d="M102.93,62.83h5.13a4.13,4.13,0,0,1,2.77.83,2.71,2.71,0,0,1,.91,2.14A2.35,2.35,0,0,1,110,68.09v0A2.87,2.87,0,0,1,112.07,71a2.9,2.9,0,0,1-1,2.39,4.35,4.35,0,0,1-2.89.91h-5.25Zm4.84,4.61c1,0,1.69-.48,1.69-1.38s-.62-1.34-1.64-1.34h-2.57v2.72Zm-2.52,4.91h2.68c1.12,0,1.79-.62,1.79-1.55a1.64,1.64,0,0,0-1.86-1.65h-2.61Z"/><path d="M112.92,70.16a4.06,4.06,0,0,1,4-4.32c2.64,0,4,2,4,4.94h-6a2,2,0,0,0,2.1,2,1.54,1.54,0,0,0,1.59-1h2.14a3.52,3.52,0,0,1-3.71,2.69A4.06,4.06,0,0,1,112.92,70.16Zm2.18-.88h3.65A1.74,1.74,0,0,0,117,67.52,1.83,1.83,0,0,0,115.1,69.28Z"/><path d="M121.53,70.17a4,4,0,0,1,4.09-4.33,3.49,3.49,0,0,1,3.73,3h-2.13a1.5,1.5,0,0,0-1.5-1.27c-1.31,0-2,1-2,2.59s.63,2.6,2,2.6a1.54,1.54,0,0,0,1.65-1.39h2.09a3.43,3.43,0,0,1-3.69,3.13A4.08,4.08,0,0,1,121.53,70.17Z"/><path d="M129.88,70.17a4.29,4.29,0,1,1,4.29,4.34A4.17,4.17,0,0,1,129.88,70.17Zm6.37,0c0-1.6-.75-2.68-2.08-2.68s-2.08,1.08-2.08,2.68.73,2.68,2.08,2.68S136.25,71.78,136.25,70.17Z"/><path d="M139.37,66.06h2.09v1.11h0a2.67,2.67,0,0,1,2.39-1.33,2.44,2.44,0,0,1,2.27,1.44h0a2.86,2.86,0,0,1,2.47-1.44,2.58,2.58,0,0,1,2.7,2.91v5.52h-2.18V69.12c0-.93-.46-1.41-1.26-1.41s-1.47.7-1.47,1.79v4.77h-2.18V69.12c0-.93-.46-1.41-1.26-1.41s-1.48.7-1.48,1.79v4.77h-2.17Z"/><path d="M152.21,70.16a4.06,4.06,0,0,1,4-4.32c2.64,0,4.05,2,4.05,4.94h-5.95a2,2,0,0,0,2.1,2,1.53,1.53,0,0,0,1.58-1h2.14a3.52,3.52,0,0,1-3.71,2.69A4.06,4.06,0,0,1,152.21,70.16Zm2.18-.88H158a1.73,1.73,0,0,0-1.74-1.76A1.83,1.83,0,0,0,154.39,69.28Z"/><path d="M168.73,73.36h0a2.53,2.53,0,0,1-2.42,1.1c-1.68,0-2.87-.88-2.87-2.51,0-1.81,1.48-2.38,3.3-2.64,1.36-.19,2-.3,2-.93s-.47-1-1.38-1-1.52.36-1.58,1.15H163.8c.06-1.44,1.14-2.71,3.54-2.71s3.45,1.11,3.45,3v4.18c0,.62.1,1,.29,1.13v.08H169A2.38,2.38,0,0,1,168.73,73.36Zm0-2V70.14a6,6,0,0,1-1.53.48c-1.13.26-1.69.52-1.69,1.28s.51,1,1.28,1C168.06,72.94,168.75,72.18,168.75,71.38Z"/><path d="M174.69,62.83h2.18V74.27h-2.18Z"/><path d="M183.13,73.36h0a2.53,2.53,0,0,1-2.42,1.1c-1.68,0-2.87-.88-2.87-2.51,0-1.81,1.48-2.38,3.3-2.64,1.36-.19,2-.3,2-.93s-.47-1-1.38-1-1.52.36-1.59,1.15H178.2c.06-1.44,1.14-2.71,3.54-2.71s3.45,1.11,3.45,3v4.18c0,.62.1,1,.29,1.13v.08h-2.1A2.38,2.38,0,0,1,183.13,73.36Zm0-2V70.14a5.78,5.78,0,0,1-1.52.48c-1.13.26-1.69.52-1.69,1.28s.51,1,1.28,1C182.46,72.94,183.14,72.18,183.14,71.38Z"/><path d="M188.6,67.18h.05a2.66,2.66,0,0,1,2.43-1.34,2.82,2.82,0,0,1,2.83,3.07v5.36h-2.17v-5a1.37,1.37,0,0,0-1.43-1.5,1.71,1.71,0,0,0-1.66,1.88v4.66h-2.18V66.06h2.13Z"/><path d="M194.93,74.51h2.16c.18.51.64.91,1.65.91,1.24,0,1.83-.59,1.83-1.71v-.89h0a2.66,2.66,0,0,1-2.14,1,3.69,3.69,0,0,1-3.62-3.93c0-2.44,1.47-4,3.55-4a2.62,2.62,0,0,1,2.27,1.09h0v-.87h2.09v7.59a3.2,3.2,0,0,1-1,2.49,4.27,4.27,0,0,1-3,.93C196.53,77.07,195.16,76.11,194.93,74.51Zm5.75-4.7a2,2,0,0,0-2-2.23c-1.11,0-1.84.87-1.84,2.24s.73,2.21,1.85,2.21C200.12,72,200.68,71,200.68,69.81Z"/><path d="M209.21,74.27v-1h-.05a2.64,2.64,0,0,1-2.35,1.19,2.68,2.68,0,0,1-2.85-3V66.06h2.16v5.11c0,1,.43,1.49,1.36,1.49a1.66,1.66,0,0,0,1.65-1.86V66.06h2.17v8.21Z"/><path d="M217.53,73.36h0a2.53,2.53,0,0,1-2.42,1.1c-1.68,0-2.87-.88-2.87-2.51,0-1.81,1.48-2.38,3.3-2.64,1.36-.19,2-.3,2-.93s-.47-1-1.38-1-1.52.36-1.59,1.15H212.6c.06-1.44,1.13-2.71,3.53-2.71s3.46,1.11,3.46,3v4.18c0,.62.1,1,.29,1.13v.08h-2.1A2.38,2.38,0,0,1,217.53,73.36Zm0-2V70.14a5.78,5.78,0,0,1-1.52.48c-1.13.26-1.69.52-1.69,1.28s.51,1,1.28,1C216.86,72.94,217.54,72.18,217.54,71.38Z"/><path d="M220.64,74.51h2.16c.18.51.65.91,1.65.91,1.24,0,1.83-.59,1.83-1.71v-.89h-.05a2.66,2.66,0,0,1-2.14,1,3.69,3.69,0,0,1-3.62-3.93c0-2.44,1.47-4,3.55-4a2.65,2.65,0,0,1,2.28,1.09h0v-.87h2.09v7.59a3.17,3.17,0,0,1-1,2.49,4.26,4.26,0,0,1-3,.93C222.25,77.07,220.87,76.11,220.64,74.51Zm5.75-4.7a2,2,0,0,0-1.95-2.23c-1.11,0-1.84.87-1.84,2.24s.73,2.21,1.85,2.21C225.83,72,226.39,71,226.39,69.81Z"/><path d="M229.33,70.16a4.06,4.06,0,0,1,4-4.32c2.64,0,4.05,2,4.05,4.94h-6a2,2,0,0,0,2.09,2,1.53,1.53,0,0,0,1.59-1h2.14a3.52,3.52,0,0,1-3.71,2.69A4.06,4.06,0,0,1,229.33,70.16Zm2.18-.88h3.65a1.73,1.73,0,0,0-1.75-1.76A1.83,1.83,0,0,0,231.51,69.28Z"/><path d="M240.71,74.51h2.16c.18.51.64.91,1.65.91,1.23,0,1.82-.59,1.82-1.71v-.89h0a2.69,2.69,0,0,1-2.15,1,3.7,3.7,0,0,1-3.62-3.93c0-2.44,1.47-4,3.56-4a2.65,2.65,0,0,1,2.27,1.09h0v-.87h2.1v7.59a3.17,3.17,0,0,1-1,2.49,4.24,4.24,0,0,1-3,.93C242.31,77.07,240.93,76.11,240.71,74.51Zm5.75-4.7a2,2,0,0,0-2-2.23c-1.1,0-1.84.87-1.84,2.24S243.4,72,244.52,72C245.89,72,246.46,71,246.46,69.81Z"/><path d="M249.4,70.16a4.06,4.06,0,0,1,4-4.32c2.64,0,4.05,2,4.05,4.94h-6a2,2,0,0,0,2.1,2,1.52,1.52,0,0,0,1.58-1h2.15a3.53,3.53,0,0,1-3.72,2.69A4.06,4.06,0,0,1,249.4,70.16Zm2.17-.88h3.65a1.73,1.73,0,0,0-1.74-1.76A1.83,1.83,0,0,0,251.57,69.28Z"/><path d="M260.53,67.18h.05A2.66,2.66,0,0,1,263,65.84a2.83,2.83,0,0,1,2.84,3.07v5.36h-2.18v-5a1.36,1.36,0,0,0-1.42-1.5,1.71,1.71,0,0,0-1.67,1.88v4.66H258.4V66.06h2.13Z"/><path d="M267.09,62.83h2.18v2h-2.18Zm0,3.23h2.18v8.21h-2.18Z"/><path d="M275.77,74.27v-1h0a2.64,2.64,0,0,1-2.35,1.19,2.68,2.68,0,0,1-2.85-3V66.06h2.16v5.11c0,1,.43,1.49,1.36,1.49a1.66,1.66,0,0,0,1.65-1.86V66.06h2.17v8.21Z"/><path d="M278.66,71.61h2A1.58,1.58,0,0,0,282.47,73c1,0,1.5-.37,1.5-1,0-.78-1-.86-2.16-1.09-1.47-.29-2.91-.69-2.91-2.48s1.47-2.62,3.35-2.62c2.16,0,3.36,1.07,3.52,2.72h-2c-.1-.88-.66-1.2-1.59-1.2s-1.4.32-1.4.91,1.08.77,2.25,1c1.38.29,2.9.67,2.9,2.59,0,1.65-1.41,2.64-3.46,2.64C280.12,74.51,278.79,73.36,278.66,71.61Z"/><path d="M117.28,28l.19.19v4.07l-.19.19H109v22l-.19.19h-4l-.19-.19v-22H96.38l-.19-.19V28.19l.19-.19Z"/><path d="M118.54,37.31a10.25,10.25,0,0,1,4.75-1.14c4.18,0,7.67,2.47,7.67,7.6V54.41l-.19.19h-4.06l-.19-.19v-.57a8,8,0,0,1-4.37,1.33c-3.08,0-6.27-1.52-6.27-5.28,0-5,5.2-6.57,10.64-6.88,0-1.59-1.33-2.85-3.42-2.85a10.83,10.83,0,0,0-6.23,2.21l-.19-.19Zm8,9.08c-4,.19-6.08,1.37-6.08,3,0,1.18,1,1.75,2.24,1.75A7.47,7.47,0,0,0,126.52,50Z"/><path d="M136.24,37.31A10.25,10.25,0,0,1,141,36.17c4.18,0,7.68,2.47,7.68,7.6V54.41l-.19.19h-4.07l-.19-.19v-.57a8,8,0,0,1-4.37,1.33c-3.07,0-6.26-1.52-6.26-5.28,0-5,5.2-6.57,10.63-6.88,0-1.59-1.33-2.85-3.42-2.85a10.83,10.83,0,0,0-6.23,2.21l-.19-.19Zm8,9.08c-4,.19-6.08,1.37-6.08,3,0,1.18,1,1.75,2.25,1.75A7.46,7.46,0,0,0,144.22,50Z"/><path d="M156.35,28l.19.19V47.84c0,2.13,1,3.08,2.39,3.08a4.68,4.68,0,0,0,3.49-1.52l.19.19V54a8,8,0,0,1-3.76,1.14c-4.37,0-6.72-2.7-6.72-7.07V28.19l.19-.19Z"/><path d="M196.58,34.77a15.23,15.23,0,0,0-9.3-2.7,9.08,9.08,0,0,0-9.43,9.23c0,5.21,4,9.24,9.61,9.24a13,13,0,0,0,5.1-1V43.7h-4.68l-.19-.19v-4l.19-.19h8.93l.19.19v13a17.24,17.24,0,0,1-9.54,2.73c-8.16,0-14.62-6.08-14.62-13.87a14.08,14.08,0,0,1,14.44-13.87c3.6,0,6.87.5,9.49,2.17v5Z"/><path d="M217,52.93A13.44,13.44,0,0,1,210,55.17c-5.81,0-10.1-4.29-10.1-9.65,0-5.17,3.6-9.35,9.19-9.35,5,0,8.21,4.34,8.21,8.82a4.46,4.46,0,0,1-.19,1.59l-.31.19H204.34A5.33,5.33,0,0,0,210,51.18a10.51,10.51,0,0,0,6.88-2.73l.19.19Zm-4.22-9.5a3.78,3.78,0,0,0-3.76-3.27,4.53,4.53,0,0,0-4.56,3.27Z"/><path d="M224.52,36.74l.19.19v.57a9.87,9.87,0,0,1,4.75-1.33c5.69,0,8.54,3.23,8.54,8.36v9.88l-.19.19h-4l-.19-.19V45c0-3-1.52-4.6-4.37-4.6a6.1,6.1,0,0,0-4.52,1.9V54.41l-.19.19h-4l-.19-.19V36.93l.19-.19Z"/><path d="M244.28,29.14l2.77,2.74v.38L244.28,35h-.38l-2.78-2.77v-.38l2.78-2.74Zm1.82,7.6.19.19V54.41l-.19.19h-4l-.19-.19V36.93l.19-.19Z"/><path d="M268.56,45.67a9.5,9.5,0,1,1-9.5-9.5A9.41,9.41,0,0,1,268.56,45.67Zm-14.48,0a5,5,0,1,0,9.92,0,5,5,0,1,0-9.92,0Z"/></svg>